# xmcd
#
# Track frame offsets:
#	150
#	11636
#	24703
#	36016
#	46366
#	58369
#	69309
#	83544
#	97344
#	109278
#	120145
#	133240
#	145989
#	158187
#	168443
#	182109
#	195184
#	204467
#
# Disc length: 2865 seconds
#
# Revision: 0
# Processed by: cddbd v1.5.2PL0 Copyright (c) Steve Scherf et al.
# Submitted via: EZCDAudioConverter 7.0.6.1
#
DISCID=fa0b2f12
DTITLE=I Marc 4 - Nelson Psychout
DYEAR=1900
DGENRE=
TTITLE0=Distorsion Mind
TTITLE1=The Trip
TTITLE2=Compression
TTITLE3=Dirottamento
TTITLE4=Suoni Distorti
TTITLE5=Beat Generation
TTITLE6=Beat Morbido
TTITLE7=Leslie Love
TTITLE8=Indagine
TTITLE9=Attesa Spasmodica
TTITLE10=Deep Bass
TTITLE11=Filter
TTITLE12=Airon
TTITLE13=Wonder
TTITLE14=Underground
TTITLE15=Ray Ban
TTITLE16=Berkey 70
TTITLE17=Deep Bass
EXTD=
EXTT0=
EXTT1=
EXTT2=
EXTT3=
EXTT4=
EXTT5=
EXTT6=
EXTT7=
EXTT8=
EXTT9=
EXTT10=
EXTT11=
EXTT12=
EXTT13=
EXTT14=
EXTT15=
EXTT16=
EXTT17=
PLAYORDER=
